<svg id="Capa_1" enable-background="new 0 0 512 512" height="512" viewBox="0 0 512 512" width="512" xmlns="http://www.w3.org/2000/svg"><g><g><g><path d="m5.506 419.781 217.394-367.414c14.954-25.274 51.247-25.274 66.201 0l217.394 367.414c15.334 25.916-3.178 58.806-33.1 58.806h-434.789c-29.922.001-48.434-32.889-33.1-58.806z" fill="#fd4755"/><g><path d="m180.893 478.588h292.5c29.922 0 48.435-32.89 33.1-58.806l-158.836-268.449c6.291 26.836 9.325 57.2 6.028 90.319-15.599 156.693-158.311 229.751-167.557 234.288-1.776.92-3.515 1.795-5.235 2.648z" fill="#fb2b3a"/><path d="m38.6 447.75c-6.328-.218-9.846-6.086-6.502-12.163l217.393-367.414c3.359-5.265 9.738-5.196 13.005 0l217.393 367.413c3.358 6.1-.131 11.942-6.502 12.163h-434.787z" fill="#fed402"/><path d="m354.851 224.261c-.203 5.709-.58 11.504-1.166 17.391-10.375 104.221-76.976 171.429-123.145 206.098h242.847c6.371-.221 9.86-6.063 6.502-12.163z" fill="#f7bc09"/></g></g><path d="m191.074 374.275v-114.39l64.977-46.359 64.875 46.359v114.375z" fill="#fff"/><path d="m256.051 213.526-64.976 46.358v8.856l34.071-24.308 42.546 30.402c14.013 10.013 22.329 26.177 22.329 43.4v56.029l30.905-.004v-114.374z" fill="#e8edf2"/><path d="m344.107 285.745c-6.466 6.736-17.036 7.339-24.226 1.382l-59.39-49.204c-3.436-2.858-8.421-2.858-11.857 0l-58.997 49.068c-7.189 5.979-17.776 5.385-24.251-1.36-7.162-7.46-6.491-19.43 1.46-26.043l71.248-59.257c9.544-7.938 23.393-7.938 32.937 0l71.594 59.352c7.97 6.607 8.652 18.593 1.482 26.062z" fill="#554e56"/><g fill="#433f43"><path d="m237.972 237.923c-3.436-2.858-8.422-2.858-11.857 0l-58.997 49.068c-.042.035-.088.064-.13.098 6.519 5.326 16.024 5.412 22.65-.098l53.676-44.643z"/><path d="m342.625 259.683-71.594-59.352c-7.921-6.588-18.799-7.69-27.728-3.343 1.83.891 3.585 1.993 5.209 3.343l71.594 59.352c7.97 6.608 8.652 18.593 1.482 26.062-.508.529-1.048 1.006-1.603 1.459 7.188 5.868 17.686 5.245 24.122-1.459 7.17-7.469 6.488-19.455-1.482-26.062z"/></g><path d="m234.178 374.973v-52.126c0-5.121 4.151-9.272 9.272-9.272h25.101c5.121 0 9.272 4.151 9.272 9.272v52.406z" fill="#b5adb6"/><path d="m425.336 343.386c-17.401 7.384-22.77 10.907-22.77 10.907-5.844 3.841-11.033 8.098-19.855 10.245-2.866.698-5.964 1.087-9.415 1.087-29.27 0-29.27-22.664-58.54-22.664-29.266 0-29.266 22.664-58.532 22.664-29.267 0-29.267-22.664-58.534-22.664-23.39 0-28.086 14.478-43.97 20.291-5.769 2.111-10.489 2.215-14.561 2.373-24.421.952-46.551-18.212-51.448-22.165-.247-.199-.504-.392-.755-.588l-54.858 92.715c-3.344 6.077.174 11.945 6.502 12.163h434.787c6.371-.221 9.86-6.063 6.502-12.163z" fill="#17b2f9"/><path d="m479.889 435.587-29.36-49.621-25.193-42.579c-17.401 7.384-22.77 10.907-22.77 10.907-5.844 3.841-11.033 8.098-19.855 10.245-2.866.698-5.964 1.087-9.415 1.087-26.5 0-29.01-18.575-50.967-22.092-26.102 48.175-62.935 82.55-91.788 104.216h242.847c2.389-.083 4.373-.956 5.743-2.337.228-.23.439-.474.633-.731 1.737-2.314 2.014-5.664.125-9.095z" fill="#1596ed"/><path d="m479.889 435.587-29.209-49.367c-23.529 1.693-38.568 8.378-48.114 14.431-6.129 3.887-15.686 11.332-29.27 11.332-29.27 0-29.27-22.664-58.54-22.664-29.266 0-29.266 22.664-58.532 22.664-29.267 0-29.267-22.664-58.534-22.664-29.266 0-29.266 22.664-58.531 22.664-17.731 0-25.451-12.303-43.97-20.29-7.316-3.155-18.247-6.499-33.279-6.494l-29.813 50.387c-3.344 6.077.174 11.945 6.502 12.163h434.787c6.373-.22 9.861-6.062 6.503-12.162z" fill="#bdecfd"/><path d="m479.889 435.587-13.532-22.87-15.677-26.497c-23.529 1.693-38.568 8.378-48.114 14.431-6.129 3.887-15.686 11.332-29.27 11.332-29.27 0-29.27-22.664-58.54-22.664-20.694 0-26.763 11.325-38.885 17.963-15.566 16.54-31.381 29.992-45.331 40.467h242.847c2.389-.083 4.373-.956 5.743-2.337.228-.23.439-.474.633-.731 1.738-2.313 2.015-5.663.126-9.094z" fill="#8ae0fb"/></g></g></svg>