<svg height="512pt" viewBox="0 0 512.00016 512" width="512pt" xmlns="http://www.w3.org/2000/svg"><path d="m438.941406 296.671875c21.011719 8.976563 38.585938 24.4375 50.234375 43.855469 30.644531-84.441406 13.863281-182.199219-50.234375-252.246094zm0 0" fill="#54c8f2"/><path d="m288.640625 395.964844c0-44.570313 27.015625-82.824219 65.566406-99.292969v-246.8125c0-7.15625 1.78125-13.894531 4.914063-19.804687-31.476563-14.4375-66.484375-22.496094-103.375-22.496094-137.113282 0-248.265625 111.152344-248.265625 248.265625s111.152343 248.265625 248.265625 248.265625c30.167968 0 59.078125-5.386719 85.828125-15.242188-31.6875-18.808594-52.933594-53.359375-52.933594-92.882812zm0 0" fill="#54c8f2"/><path d="m27.460938 255.824219c0-133.75 105.773437-242.777344 238.230468-248.046875-141.757812-5.59375-258.210937 107.773437-258.210937 248.046875 0 140.585937 116.820312 253.726562 258.378906 248.050781-132.539063-5.183594-238.398437-114.246094-238.398437-248.050781zm0 0" fill="#00acea"/><path d="m183.292969 172.011719 6.6875-31.210938-99.539063-70.175781c-50.917968 45.433594-82.953125 111.578125-82.953125 185.210938 0 54.105468 8.34375 73.597656 34.554688 122.867187l119-52.542969 4.273437-43.816406-19.921875-29.683594v-41.976562zm0 0" fill="#55e072"/><path d="m277.660156 500.902344c-7.222656.648437-14.535156 3.1875-21.914062 3.1875-64.539063 0-123.328125-26.839844-167.46875-67.234375l27.019531-27.421875 86.207031-7.421875 69.847656 40.125zm0 0" fill="#55e072"/><path d="m438.941406 296.671875v-246.8125c0-23.398437-18.96875-42.367187-42.367187-42.367187-23.335938 0-42.367188 18.902343-42.367188 42.367187v246.8125c-38.550781 16.46875-65.566406 54.726563-65.566406 99.292969 0 59.613281 48.324219 107.933594 107.933594 107.933594s107.933593-48.320313 107.933593-107.933594c0-44.570313-27.015624-82.824219-65.566406-99.292969zm0 0" fill="#e2ecf5"/><path d="m426.210938 327.515625-10.414063-4.453125v-223.25c0-10.601562-8.625-19.222656-19.222656-19.222656-10.597657 0-19.222657 8.621094-19.222657 19.222656v223.25l-10.414062 4.449219c-27.875 11.910156-45.882812 39.183593-45.882812 69.484375 0 41.644531 33.875 75.519531 75.519531 75.519531 41.640625 0 75.519531-33.875 75.519531-75.519531 0-30.300782-18.011719-57.574219-45.882812-69.480469zm0 0" fill="#e21743"/><path d="m308.621094 395.964844c0-44.570313 27.015625-82.824219 65.566406-99.292969v-246.8125c0-19.957031 13.800781-36.679687 32.375-41.171875-26.601562-6.433594-52.355469 13.660156-52.355469 41.171875v246.8125c-38.550781 16.46875-65.566406 54.726563-65.566406 99.292969 0 63.382812 54.398437 113.304687 117.921875 107.46875-54.921875-5.039063-97.941406-51.226563-97.941406-107.46875zm0 0" fill="#c5d1db"/><path d="m341.035156 396.996094c0-30.300782 18.007813-57.574219 45.882813-69.484375l10.414062-4.449219v-223.25c0-6.9375 3.707031-13.011719 9.234375-16.390625-2.917968-1.785156-6.328125-2.832031-9.992187-2.832031-10.597657 0-19.222657 8.625-19.222657 19.222656v223.25l-10.414062 4.453125c-27.875 11.90625-45.882812 39.179687-45.882812 69.484375 0 45.207031 39.84375 80.902344 85.507812 74.835938-36.933594-4.90625-65.527344-36.585938-65.527344-74.839844zm0 0" fill="#c41239"/><path d="m338.230469 205.832031 15.976562-21.8125v-134.160156c0-6.746094 1.582031-13.121094 4.386719-18.78125-31.335938-14.890625-66.160156-23.519531-102.847656-23.519531-19.441406 0-38.367188 4.457031-56.535156 8.691406l45.386718 95.953125 32.703125 23.761719 21.914063 60.949218zm0 0" fill="#55e072"/><path d="m438.941406 296.671875c21.011719 8.976563 38.585938 24.4375 50.234375 43.855469 30.644531-84.441406 13.863281-182.199219-50.234375-252.246094zm0 0" fill="#54c8f2"/><g fill="#00d33d"><path d="m27.46875 255.835938c0-69.40625 28.46875-132.144532 74.375-177.171876l-11.402344-8.039062c-50.917968 45.433594-82.953125 111.578125-82.953125 185.210938 0 54.105468 8.34375 73.597656 34.554688 122.867187l16.199219-7.152344c-23.230469-44.132812-30.773438-64.3125-30.773438-115.714843zm0 0"/><path d="m108.261719 436.855469 27.019531-27.421875 68.828125-5.925782-2.605469-1.496093-86.207031 7.421875-27.019531 27.421875c44.140625 40.394531 102.929687 67.234375 167.46875 67.234375 1.941406 0 3.875-.179688 5.808594-.449219-58.949219-3.597656-112.40625-29.367187-153.292969-66.785156zm0 0"/><path d="m319.199219 196.914062-21.914063-60.949218-32.703125-23.761719-45.390625-95.953125c15.445313-3.597656 31.441406-7.351562 47.835938-8.398438-3.742188-.179687-7.5-.292968-11.28125-.292968-19.441406 0-38.367188 4.457031-56.535156 8.691406l45.386718 95.953125 32.703125 23.761719 21.914063 60.949218 39.015625 8.917969 2.863281-3.910156zm0 0"/></g><path d="m446.433594 291.839844v-241.980469c0-27.492187-22.367188-49.859375-49.859375-49.859375-27.492188 0-49.863281 22.367188-49.863281 49.859375v241.980469c-39.992188 19.152344-65.5625 59.488281-65.5625 104.128906 0 63.644531 51.78125 115.425781 115.425781 115.425781s115.425781-51.78125 115.425781-115.425781c0-44.640625-25.570312-84.976562-65.566406-104.128906zm-49.859375 204.566406c-55.382813 0-100.441407-45.058594-100.441407-100.441406 0-40.296875 23.949219-76.570313 61.015626-92.40625l4.550781-1.941406v-251.757813c0-19.226563 15.644531-34.875 34.875-34.875s34.875 15.648437 34.875 34.875v251.757813l4.550781 1.941406c37.066406 15.839844 61.015625 52.109375 61.015625 92.40625 0 55.386718-45.058594 100.441406-100.441406 100.441406zm0 0"/><path d="m429.15625 320.625-5.867188-2.507812v-218.304688c0-14.730469-11.984374-26.714844-26.714843-26.714844s-26.714844 11.984375-26.714844 26.714844v218.304688l-5.867187 2.507812c-30.636719 13.089844-50.433594 43.066406-50.433594 76.375 0 45.769531 37.242187 83.011719 83.015625 83.011719 45.773437 0 83.011719-37.238281 83.011719-83.011719 0-33.308594-19.792969-63.285156-50.429688-76.375zm-32.582031 144.398438c-37.511719 0-68.027344-30.515626-68.027344-68.027344 0-27.296875 16.222656-51.863282 41.332031-62.59375l14.964844-6.390625v-228.199219c0-6.46875 5.261719-11.730469 11.730469-11.730469 6.464843 0 11.726562 5.261719 11.726562 11.730469v228.199219l14.964844 6.390625h.003906c25.105469 10.730468 41.332031 35.296875 41.332031 62.59375 0 37.511718-30.515624 68.027344-68.027343 68.027344zm0 0"/><path d="m491.984375 302.511719 14.703125 2.894531c11.960938-60.703125 1.730469-125.503906-31.34375-180.742188l-12.859375 7.699219c31.3125 52.296875 40.683594 113.355469 29.5 170.148438zm0 0"/><path d="m284.546875 494.875-6.15625-57.332031-75.1875-43.199219-91.300781 7.863281-24.9375 25.304688c-13.859375-13.625-25.746094-28.460938-35.828125-44.632813l116.9375-51.632812 4.960937-50.847656-20.148437-30.019532v-36.632812l37.277343-38.039063 8.179688-38.175781-95.753906-67.507812c26.980468-22.320313 58.109375-38.25 91.515625-47.035157l44.535156 94.148438 32.394531 23.535156 22.511719 62.640625 29.015625 6.625 3.335938-14.605469-21.019532-4.804687-21.304687-59.265625-33.023438-23.996094-40.59375-85.8125c14.039063-3.183594 28.402344-6.023437 42.863281-6.367187 26.285157-.3125 51.410157 3.804687 75.5625 11.867187l.21875-.660156c.058594.015625.117188.035156.175782.054687 4.464844-14.007812 3.964844-12.460937 4.347656-13.609375-.003906 0-.007812-.003906-.011719-.003906l.214844-.667969c-81.210937-25.863281-173.988281-10.273437-243.402344 49.027344l-.03125-.023438-1.0625.949219c-56.714843 48.996094-89.304687 119.21875-88.82812475 195.441407.10546875 32.488281 3.32421875 53.046874 11.66015575 75.128906 31.792969 101.5 127.253907 178.992187 244.082032 178.992187 17.125 0 34.257812-1.707031 50.925781-5.074219l-2.964844-14.6875c-6.324219 1.277344-12.722656 2.289063-19.160156 3.054688zm-108.125-326.554688-38.519531 39.304688v47.316406l19.695312 29.347656-3.585937 36.785157-108.617188 47.957031c-8.34375-15.804688-14.675781-28.445312-19.347656-40.6875-27.550781-87.613281-2.917969-184.429688 65.003906-248.121094l90.5625 63.851563zm-77.269531 268.175782 19.542968-19.832032 81.113282-6.988281 64.5 37.058594 5.136718 47.835937c-4.589843.882813-9.433593 2.027344-13.699218 2.027344-56.175782 0-111.515625-21.210937-156.59375-60.101562zm0 0"/><path d="m277.933594 285.609375h-14.984375v-14.984375h14.984375zm-24.976563 0h-14.984375v-14.984375h14.984375zm0 0" fill="#fff"/></svg>