<svg id="Capa_1" enable-background="new 0 0 510.233 510.233" height="512" viewBox="0 0 510.233 510.233" width="512" xmlns="http://www.w3.org/2000/svg"><g><g><g><path d="m259.323 332.523 2.503 4.757c3.612 6.863 10.801 11.087 18.554 10.901l5.816-.14c6.288-.151 12.156-3.193 15.904-8.245 4.449-5.997 5.268-13.945 2.136-20.723l-3.077-6.659c-3.275-7.089-10.309-11.689-18.117-11.847l-4.539-.092c-8.961-.181-16.992 5.504-19.799 14.015l-.704 2.134c-1.733 5.259-1.256 10.998 1.323 15.899z" fill="#be694e"/></g></g><g><g><path d="m370.254 394.303 1.772 3.366c2.556 4.857 7.644 7.846 13.131 7.714l4.116-.099c4.45-.107 8.603-2.26 11.255-5.835 3.148-4.244 3.728-9.869 1.512-14.666l-2.177-4.712c-2.318-5.017-7.296-8.272-12.821-8.384l-3.212-.065c-6.342-.128-12.025 3.895-14.012 9.918l-.498 1.51c-1.229 3.724-.892 7.785.934 11.253z" fill="#be694e"/></g></g><g><g><path d="m81.324 132.013 6.074 11.543c8.764 16.654 26.209 26.904 45.024 26.452l14.113-.339c15.26-.367 29.498-7.748 38.592-20.007 10.796-14.553 12.784-33.839 5.184-50.288l-7.466-16.158c-7.949-17.203-25.016-28.364-43.963-28.748l-11.014-.223c-21.745-.44-41.233 13.355-48.044 34.01l-1.707 5.177c-4.209 12.763-3.052 26.688 3.207 38.581z" fill="#be694e"/></g></g><g><g><path d="m190.312 99.373-7.466-16.158c-7.949-17.203-25.016-28.364-43.963-28.748l-11.014-.223c-3.776-.076-7.481.286-11.067 1.029 15.68 2.869 29.222 13.176 36.044 27.941l7.466 16.158c7.6 16.449 5.612 35.735-5.184 50.288-7.948 10.714-19.825 17.701-32.879 19.537 3.315.611 6.721.892 10.173.809l14.113-.339c15.26-.366 29.498-7.748 38.592-20.007 10.797-14.551 12.785-33.837 5.185-50.287z" fill="#ac583e"/></g></g><g><g><path d="m16.485 26.762h1.784c25.924 0 49.475 15.096 60.301 38.652l15.157 32.986c2.568 5.588 6.35 10.533 11.069 14.476l72.757 60.775c5.123 4.28 9.135 9.736 11.692 15.902l26.125 62.991c1.767 4.261 2.809 8.788 3.083 13.393l4.445 74.736c1.053 17.707 13.277 32.772 30.388 37.45l72.989 19.953c9.616 2.629 17.959 8.641 23.495 16.931 6.351 9.51 16.354 15.967 27.635 17.838l107.302 17.796c10.399 1.725 18.025 10.719 18.025 21.26v11.57h-495.232v-447.724c0-4.962 4.023-8.985 8.985-8.985z" fill="#be694e"/></g></g><g><g><path d="m484.708 450.641-107.302-17.796c-11.281-1.871-21.285-8.328-27.635-17.838-5.536-8.29-13.879-14.302-23.495-16.931l-72.989-19.953c-17.111-4.678-29.335-19.743-30.388-37.45l-4.445-74.736c-.274-4.605-1.316-9.132-3.083-13.392l-26.124-62.991c-2.557-6.167-6.569-11.622-11.692-15.902l-72.757-60.775c-4.72-3.942-8.501-8.888-11.069-14.476l-15.16-32.986c-10.825-23.557-34.376-38.653-60.301-38.653h-1.784c-2.875 0-5.429 1.356-7.073 3.457 17.057 5.736 31.386 18.285 39.157 35.195l15.16 32.986c2.568 5.588 6.349 10.533 11.069 14.476l72.757 60.775c5.123 4.28 9.135 9.736 11.692 15.902l26.124 62.991c1.767 4.261 2.809 8.788 3.083 13.392l4.445 74.736c1.053 17.707 13.278 32.772 30.388 37.45l72.989 19.953c9.616 2.629 17.959 8.641 23.495 16.931 6.351 9.51 16.354 15.967 27.635 17.838l107.302 17.796c10.399 1.725 18.025 10.719 18.025 21.26v11.57h30v-11.57c.001-10.54-7.624-19.535-18.024-21.259z" fill="#ac583e"/></g></g><g><path d="m485.937 443.242-107.303-17.796c-9.2-1.526-17.446-6.849-22.625-14.604-6.539-9.792-16.396-16.895-27.755-20l-72.989-19.953c-14.018-3.832-24.016-16.154-24.878-30.661l-2.888-48.549c-.246-4.135-3.788-7.276-7.932-7.042-4.135.246-7.288 3.797-7.042 7.932l2.888 48.549c.677 11.389 5.263 21.839 12.557 29.896v24.353l-23.661 30.708c-2.528 3.281-1.918 7.991 1.363 10.519 1.364 1.051 2.974 1.56 4.572 1.56 2.247 0 4.469-1.005 5.946-2.923l25.22-32.732c1.011-1.312 1.559-2.921 1.559-4.578v-15.69c2.647 1.275 5.431 2.331 8.34 3.126l72.989 19.953c7.872 2.152 14.703 7.075 19.235 13.862 7.473 11.19 19.371 18.87 32.645 21.072l107.303 17.796c6.81 1.129 11.752 6.959 11.752 13.861v4.07h-480.233v-190.025l25.743 32.047c.691.86 1.563 1.557 2.553 2.041l29.035 14.194c1.06.519 2.183.764 3.289.764 2.775 0 5.442-1.546 6.743-4.208 1.819-3.721.277-8.213-3.444-10.032l-27.53-13.458-36.389-45.299v-98.495c0-4.142-3.358-7.5-7.5-7.5s-7.5 3.358-7.5 7.5v319.971c0 4.142 3.358 7.5 7.5 7.5h495.233c4.143 0 7.5-3.358 7.5-7.5v-11.57c0-14.271-10.218-26.324-24.296-28.659z"/><path d="m7.5 141c4.142 0 7.5-3.358 7.5-7.5v-97.753c0-.818.666-1.484 1.485-1.484h1.784c22.92 0 43.915 13.457 53.485 34.284l15.159 32.986c3.014 6.559 7.536 12.472 13.076 17.1l44.983 37.575 7.695 61.028-18.889 28c-2.316 3.434-1.41 8.095 2.023 10.412 1.286.868 2.745 1.283 4.188 1.283 2.409 0 4.776-1.159 6.225-3.307l20.465-30.337c1.016-1.506 1.451-3.33 1.223-5.133l-6.031-47.832 10.875 9.084c4.177 3.49 7.488 7.992 9.573 13.02l26.125 62.991c1.034 2.492 1.768 5.108 2.182 7.776.575 3.703 3.768 6.35 7.402 6.35.383 0 .771-.029 1.161-.09 4.093-.636 6.896-4.469 6.26-8.563-.598-3.849-1.657-7.624-3.149-11.22l-26.125-62.991c-3.009-7.254-7.785-13.75-13.813-18.785l-2.68-2.239c4.34-3.277 8.226-7.154 11.469-11.526 12.438-16.765 14.725-38.952 5.969-57.902l-7.466-16.158c-9.087-19.669-28.957-32.662-50.62-33.101l-11.014-.223c-15.878-.336-31.023 6.042-41.902 17.135l-.735-1.599c-12.01-26.134-38.354-43.02-67.115-43.02h-1.784c-9.089.001-16.484 7.396-16.484 16.486v97.753c0 4.142 3.358 7.5 7.5 7.5zm120.217-79.257 11.014.223c15.965.323 30.609 9.899 37.306 24.395l7.466 16.158c6.453 13.966 4.768 30.318-4.399 42.674-3.091 4.167-6.963 7.735-11.346 10.503l-58.153-48.576c-3.84-3.208-6.974-7.306-9.063-11.852l-7.53-16.386c8.033-10.921 20.97-17.424 34.705-17.139z"/><path d="m252.686 336.016 2.503 4.755c4.866 9.248 14.278 14.915 24.683 14.915.229 0 .459-.003.688-.008l5.817-.14c8.658-.208 16.585-4.318 21.746-11.274 6.087-8.205 7.207-19.063 2.922-28.338l-3.077-6.659c-4.447-9.626-14.172-15.985-24.773-16.2l-4.539-.092c-12.343-.262-23.211 7.453-27.072 19.164l-.705 2.135c-2.359 7.153-1.701 15.077 1.807 21.742zm12.437-17.042.705-2.135c1.786-5.418 6.856-8.996 12.524-8.865l4.538.092c4.904.099 9.402 3.041 11.46 7.494l3.077 6.659c1.982 4.291 1.465 9.313-1.352 13.109-2.388 3.218-6.055 5.12-10.06 5.216l-5.816.14c-4.974.127-9.437-2.524-11.737-6.896l-2.504-4.757c-1.621-3.084-1.926-6.75-.835-10.057z"/><path d="m365.388 401.162c3.826 7.271 11.226 11.727 19.407 11.726.18 0 .361-.002.542-.006l4.114-.099c6.81-.164 13.042-3.395 17.1-8.864 4.785-6.451 5.665-14.988 2.297-22.281l-2.178-4.712c-3.498-7.568-11.144-12.567-19.478-12.736l-3.213-.065c-9.65-.181-18.249 5.859-21.286 15.068l-.498 1.51c-1.854 5.623-1.336 11.854 1.422 17.093zm11.053-15.761.498-1.511c.945-2.869 3.583-4.77 6.591-4.77.049 0 .097 0 .146.001l3.213.065c2.638.053 5.058 1.636 6.164 4.032l2.178 4.711c1.066 2.308.787 5.01-.729 7.053-1.283 1.73-3.255 2.752-5.411 2.804l-4.114.099c-2.693.069-5.077-1.358-6.313-3.708l-1.771-3.367c-.001 0-.001 0-.001 0-.873-1.658-1.038-3.63-.451-5.409z"/></g></g></svg>