<svg id="Capa_1" enable-background="new 0 0 497 497" height="512" viewBox="0 0 497 497" width="512" xmlns="http://www.w3.org/2000/svg"><g><g><path d="m466.865 452.983-48.324 10-48.324-10v-226.087h76.675c11.031 0 19.974 8.942 19.974 19.974v206.113z" fill="#738c96"/></g><g><path d="m401.637 330.931h65.229v-15h-65.229c-5.472 0-9.908 3.358-9.908 7.5s4.436 7.5 9.908 7.5z" fill="#607882"/></g><g><path d="m401.637 298.041h65.229v-15h-65.229c-5.472 0-9.908 3.358-9.908 7.5-.001 4.142 4.436 7.5 9.908 7.5z" fill="#607882"/></g><g><path d="m466.865 414.602h-65.229c-5.472 0-9.908 3.358-9.908 7.5s4.436 7.5 9.908 7.5h65.229z" fill="#607882"/></g><g><path d="m391.728 257.651c0 4.142 4.436 7.5 9.908 7.5h65.229v-15h-65.229c-5.471 0-9.908 3.358-9.908 7.5z" fill="#607882"/></g><g><path d="m401.637 363.822h65.229v-15h-65.229c-5.472 0-9.908 3.358-9.908 7.5-.001 4.142 4.436 7.5 9.908 7.5z" fill="#607882"/></g><g><path d="m401.637 396.712h65.229v-15h-65.229c-5.472 0-9.908 3.358-9.908 7.5-.001 4.142 4.436 7.5 9.908 7.5z" fill="#607882"/></g><g><path d="m424.391 68.095c-2.451 0-4.777.521-6.879 1.452-3.254-6.77-9.828-11.662-17.633-12.618 1.562-4.133 2.421-8.606 2.421-13.279 0-20.908-17.092-37.858-38.176-37.858-17.787 0-32.733 12.063-36.972 28.39-5.052-4.695-11.841-7.575-19.311-7.575-14.223 0-25.986 10.422-27.96 23.985-.996-.17-2.018-.264-3.063-.264-7.244 0-13.479 4.265-16.303 10.399-4.518-4.958-11.052-8.075-18.322-8.075-13.635 0-24.688 10.961-24.688 24.482 0 13.094 10.365 23.786 23.402 24.449v.033h183.485c9.335 0 16.902-7.504 16.902-16.761-.001-9.256-7.568-16.76-16.903-16.76z" fill="#3f4a4a"/></g><g><path d="m481.644 91.731c-2.227 0-4.34.474-6.25 1.319-2.956-6.151-8.929-10.596-16.021-11.464 1.419-3.755 2.199-7.819 2.199-12.065 0-18.996-15.529-34.395-34.685-34.395-16.16 0-29.739 10.96-33.591 25.793-4.59-4.266-10.758-6.882-17.545-6.882-12.922 0-23.61 9.469-25.403 21.791-.905-.155-1.834-.24-2.783-.24-6.581 0-12.246 3.875-14.812 9.448-4.105-4.505-10.042-7.336-16.646-7.336-12.388 0-22.43 9.959-22.43 22.243 0 11.896 9.417 21.611 21.262 22.213v.03h166.705c8.481 0 15.356-6.818 15.356-15.228 0-8.409-6.875-15.227-15.356-15.227z" fill="#495959"/></g><g><path d="m234.37 449.983-48.69 20-48.69-20v-204.615h81.001c9.046 0 16.379 7.333 16.379 16.379z" fill="#87a0af"/></g><g><path d="m407.521 452.983-59.362 20-59.362-20v-238.049c0-9.359 7.587-16.946 16.946-16.946h84.832c9.359 0 16.945 7.587 16.945 16.946v238.049z" fill="#b4d2d7"/></g><g><path d="m390.576 197.988h-30c9.359 0 16.945 7.587 16.945 16.945v238.049h30v-238.048c0-9.359-7.586-16.946-16.945-16.946z" fill="#9bb9c3"/></g><g><path d="m167.089 78.737c-1.971 0-3.842.419-5.532 1.167-2.616-5.444-7.903-9.378-14.18-10.147 1.256-3.323 1.947-6.92 1.947-10.678 0-16.813-13.745-30.443-30.699-30.443-14.304 0-26.322 9.701-29.731 22.83-4.063-3.776-9.522-6.091-15.529-6.091-11.437 0-20.897 8.381-22.484 19.287-.801-.137-1.623-.212-2.463-.212-5.825 0-10.839 3.43-13.11 8.363-3.633-3.987-8.888-6.493-14.733-6.493-10.965 0-19.853 8.815-19.853 19.688 0 10.529 8.335 19.128 18.819 19.661v.027h147.55c7.507 0 13.592-6.035 13.592-13.479s-6.088-13.48-13.594-13.48z" fill="#495959"/></g><g><path d="m330.625 62.114c-8.918 0-16.935 3.824-22.478 9.906-3.464-7.526-11.114-12.759-20.001-12.759-1.282 0-2.536.115-3.758.324-2.421-16.639-16.854-29.426-34.303-29.426-9.165 0-17.494 3.533-23.693 9.293-5.201-20.03-23.538-34.83-45.36-34.83-25.867 0-46.837 20.795-46.837 46.446 0 5.734 1.054 11.221 2.97 16.291-9.576 1.172-17.642 7.175-21.634 15.48-2.579-1.142-5.433-1.781-8.44-1.781-11.453 0-20.737 9.207-20.737 20.564s9.284 20.564 20.737 20.564h225.112v-.04c15.995-.814 28.712-13.932 28.712-29.996-.001-16.588-13.562-30.036-30.29-30.036z" fill="#738c96"/></g><g><path d="m330.625 62.114c-8.918 0-16.935 3.824-22.478 9.907-3.464-7.526-11.114-12.759-20.001-12.759-1.282 0-2.536.115-3.758.324-2.421-16.639-16.854-29.426-34.303-29.426-9.165 0-17.494 3.533-23.692 9.293-5.201-20.03-23.538-34.83-45.36-34.83-18.404 0-34.321 10.531-41.978 25.845 5.058-1.854 10.525-2.869 16.233-2.869 15.817 0 29.802 7.774 38.282 19.68 4.655 6.536 12.862 9.735 20.533 7.383 3.235-.992 6.673-1.526 10.237-1.526 16.147 0 29.71 10.949 33.564 25.768.524 2.016 2.376 3.338 4.459 3.334h.038c5.853 0 11.169 2.27 15.106 5.969 3.131 2.942 7.807 3.6 11.469 1.354 4.622-2.834 10.07-4.47 15.904-4.47 16.728 0 30.289 13.448 30.289 30.037 0 2.348-.279 4.63-.793 6.823 14.957-1.833 26.538-14.471 26.538-29.799 0-16.59-13.561-30.038-30.289-30.038z" fill="#607882"/></g><g><path d="m255.092 94.516-41.776 71.059c-1.275 2.168.289 4.901 2.804 4.901h23.842c2.003 0 3.53 1.793 3.211 3.771l-7.05 43.643c-.575 3.559 4.207 5.271 6.021 2.156l41.096-70.561c1.263-2.168-.301-4.889-2.81-4.889h-22.902c-1.993 0-3.518-1.777-3.215-3.747l6.798-44.189c.545-3.543-4.202-5.233-6.019-2.144z" fill="#f7e365"/></g><g><path d="m47.355 454.62v-269.22c0-9.409 7.628-17.037 17.037-17.037h95.072c9.409 0 17.037 7.628 17.037 17.037v269.22" fill="#b4d2d7"/></g><g><path d="m159.464 168.364h-30c9.409 0 17.037 7.628 17.037 17.037v269.22h-99.147 129.147v-269.22c.001-9.41-7.627-17.037-17.037-17.037z" fill="#9bb9c3"/></g><g><path d="m80.985 216.029c-4.142 0-7.5-3.358-7.5-7.5v-12.006c0-4.142 3.358-7.5 7.5-7.5s7.5 3.358 7.5 7.5v12.006c0 4.142-3.358 7.5-7.5 7.5z" fill="#f7f7f7"/></g><g><path d="m111.928 216.029c-4.142 0-7.5-3.358-7.5-7.5v-12.006c0-4.142 3.358-7.5 7.5-7.5s7.5 3.358 7.5 7.5v12.006c0 4.142-3.358 7.5-7.5 7.5z" fill="#f7f7f7"/></g><g><path d="m142.872 216.029c-4.142 0-7.5-3.358-7.5-7.5v-12.006c0-4.142 3.358-7.5 7.5-7.5s7.5 3.358 7.5 7.5v12.006c0 4.142-3.358 7.5-7.5 7.5z" fill="#f7f7f7"/></g><g><path d="m80.985 260.438c-4.142 0-7.5-3.358-7.5-7.5v-12.006c0-4.142 3.358-7.5 7.5-7.5s7.5 3.358 7.5 7.5v12.006c0 4.142-3.358 7.5-7.5 7.5z" fill="#f7f7f7"/></g><g><path d="m111.928 260.438c-4.142 0-7.5-3.358-7.5-7.5v-12.006c0-4.142 3.358-7.5 7.5-7.5s7.5 3.358 7.5 7.5v12.006c0 4.142-3.358 7.5-7.5 7.5z" fill="#f7f7f7"/></g><g><path d="m142.872 260.438c-4.142 0-7.5-3.358-7.5-7.5v-12.006c0-4.142 3.358-7.5 7.5-7.5s7.5 3.358 7.5 7.5v12.006c0 4.142-3.358 7.5-7.5 7.5z" fill="#f7f7f7"/></g><g><path d="m80.985 304.849c-4.142 0-7.5-3.358-7.5-7.5v-12.006c0-4.142 3.358-7.5 7.5-7.5s7.5 3.358 7.5 7.5v12.006c0 4.142-3.358 7.5-7.5 7.5z" fill="#f7f7f7"/></g><g><path d="m111.928 304.849c-4.142 0-7.5-3.358-7.5-7.5v-12.006c0-4.142 3.358-7.5 7.5-7.5s7.5 3.358 7.5 7.5v12.006c0 4.142-3.358 7.5-7.5 7.5z" fill="#f7f7f7"/></g><g><path d="m142.872 304.849c-4.142 0-7.5-3.358-7.5-7.5v-12.006c0-4.142 3.358-7.5 7.5-7.5s7.5 3.358 7.5 7.5v12.006c0 4.142-3.358 7.5-7.5 7.5z" fill="#f7f7f7"/></g><g><path d="m80.985 349.258c-4.142 0-7.5-3.358-7.5-7.5v-12.006c0-4.142 3.358-7.5 7.5-7.5s7.5 3.358 7.5 7.5v12.006c0 4.142-3.358 7.5-7.5 7.5z" fill="#f7f7f7"/></g><g><path d="m111.928 349.258c-4.142 0-7.5-3.358-7.5-7.5v-12.006c0-4.142 3.358-7.5 7.5-7.5s7.5 3.358 7.5 7.5v12.006c0 4.142-3.358 7.5-7.5 7.5z" fill="#f7f7f7"/></g><g><path d="m142.872 349.258c-4.142 0-7.5-3.358-7.5-7.5v-12.006c0-4.142 3.358-7.5 7.5-7.5s7.5 3.358 7.5 7.5v12.006c0 4.142-3.358 7.5-7.5 7.5z" fill="#f7f7f7"/></g><g><path d="m80.985 393.668c-4.142 0-7.5-3.358-7.5-7.5v-12.006c0-4.142 3.358-7.5 7.5-7.5s7.5 3.358 7.5 7.5v12.006c0 4.142-3.358 7.5-7.5 7.5z" fill="#f7f7f7"/></g><g><path d="m111.928 393.668c-4.142 0-7.5-3.358-7.5-7.5v-12.006c0-4.142 3.358-7.5 7.5-7.5s7.5 3.358 7.5 7.5v12.006c0 4.142-3.358 7.5-7.5 7.5z" fill="#f7f7f7"/></g><g><path d="m142.872 393.668c-4.142 0-7.5-3.358-7.5-7.5v-12.006c0-4.142 3.358-7.5 7.5-7.5s7.5 3.358 7.5 7.5v12.006c0 4.142-3.358 7.5-7.5 7.5z" fill="#f7f7f7"/></g><g><path d="m80.985 438.078c-4.142 0-7.5-3.358-7.5-7.5v-12.006c0-4.142 3.358-7.5 7.5-7.5s7.5 3.358 7.5 7.5v12.006c0 4.142-3.358 7.5-7.5 7.5z" fill="#f7f7f7"/></g><g><path d="m111.928 438.078c-4.142 0-7.5-3.358-7.5-7.5v-12.006c0-4.142 3.358-7.5 7.5-7.5s7.5 3.358 7.5 7.5v12.006c0 4.142-3.358 7.5-7.5 7.5z" fill="#f7f7f7"/></g><g><path d="m142.872 438.078c-4.142 0-7.5-3.358-7.5-7.5v-12.006c0-4.142 3.358-7.5 7.5-7.5s7.5 3.358 7.5 7.5v12.006c0 4.142-3.358 7.5-7.5 7.5z" fill="#f7f7f7"/></g><g><path d="m318.359 249.918c-4.142 0-7.5-3.358-7.5-7.5v-12.006c0-4.142 3.358-7.5 7.5-7.5s7.5 3.358 7.5 7.5v12.006c0 4.142-3.358 7.5-7.5 7.5z" fill="#f7f7f7"/></g><g><path d="m349.303 249.918c-4.142 0-7.5-3.358-7.5-7.5v-12.006c0-4.142 3.358-7.5 7.5-7.5s7.5 3.358 7.5 7.5v12.006c0 4.142-3.358 7.5-7.5 7.5z" fill="#f7f7f7"/></g><g><path d="m380.246 249.918c-4.142 0-7.5-3.358-7.5-7.5v-12.006c0-4.142 3.358-7.5 7.5-7.5s7.5 3.358 7.5 7.5v12.006c0 4.142-3.358 7.5-7.5 7.5z" fill="#f7f7f7"/></g><g><path d="m318.359 294.328c-4.142 0-7.5-3.358-7.5-7.5v-12.006c0-4.142 3.358-7.5 7.5-7.5s7.5 3.358 7.5 7.5v12.006c0 4.142-3.358 7.5-7.5 7.5z" fill="#f7f7f7"/></g><g><path d="m349.303 294.328c-4.142 0-7.5-3.358-7.5-7.5v-12.006c0-4.142 3.358-7.5 7.5-7.5s7.5 3.358 7.5 7.5v12.006c0 4.142-3.358 7.5-7.5 7.5z" fill="#f7f7f7"/></g><g><path d="m380.246 294.328c-4.142 0-7.5-3.358-7.5-7.5v-12.006c0-4.142 3.358-7.5 7.5-7.5s7.5 3.358 7.5 7.5v12.006c0 4.142-3.358 7.5-7.5 7.5z" fill="#f7f7f7"/></g><g><path d="m318.359 338.737c-4.142 0-7.5-3.358-7.5-7.5v-12.006c0-4.142 3.358-7.5 7.5-7.5s7.5 3.358 7.5 7.5v12.006c0 4.142-3.358 7.5-7.5 7.5z" fill="#f7f7f7"/></g><g><path d="m349.303 338.737c-4.142 0-7.5-3.358-7.5-7.5v-12.006c0-4.142 3.358-7.5 7.5-7.5s7.5 3.358 7.5 7.5v12.006c0 4.142-3.358 7.5-7.5 7.5z" fill="#f7f7f7"/></g><g><path d="m380.246 338.737c-4.142 0-7.5-3.358-7.5-7.5v-12.006c0-4.142 3.358-7.5 7.5-7.5s7.5 3.358 7.5 7.5v12.006c0 4.142-3.358 7.5-7.5 7.5z" fill="#f7f7f7"/></g><g><path d="m318.359 383.147c-4.142 0-7.5-3.358-7.5-7.5v-12.006c0-4.142 3.358-7.5 7.5-7.5s7.5 3.358 7.5 7.5v12.006c0 4.142-3.358 7.5-7.5 7.5z" fill="#f7f7f7"/></g><g><path d="m349.303 383.147c-4.142 0-7.5-3.358-7.5-7.5v-12.006c0-4.142 3.358-7.5 7.5-7.5s7.5 3.358 7.5 7.5v12.006c0 4.142-3.358 7.5-7.5 7.5z" fill="#f7f7f7"/></g><g><path d="m380.246 383.147c-4.142 0-7.5-3.358-7.5-7.5v-12.006c0-4.142 3.358-7.5 7.5-7.5s7.5 3.358 7.5 7.5v12.006c0 4.142-3.358 7.5-7.5 7.5z" fill="#f7f7f7"/></g><g><path d="m318.359 427.557c-4.142 0-7.5-3.358-7.5-7.5v-12.006c0-4.142 3.358-7.5 7.5-7.5s7.5 3.358 7.5 7.5v12.006c0 4.142-3.358 7.5-7.5 7.5z" fill="#f7f7f7"/></g><g><path d="m349.303 427.557c-4.142 0-7.5-3.358-7.5-7.5v-12.006c0-4.142 3.358-7.5 7.5-7.5s7.5 3.358 7.5 7.5v12.006c0 4.142-3.358 7.5-7.5 7.5z" fill="#f7f7f7"/></g><g><path d="m380.246 427.557c-4.142 0-7.5-3.358-7.5-7.5v-12.006c0-4.142 3.358-7.5 7.5-7.5s7.5 3.358 7.5 7.5v12.006c0 4.142-3.358 7.5-7.5 7.5z" fill="#f7f7f7"/></g><g><path d="m486.413 492.377h-475.826c-5.847 0-10.587-4.74-10.587-10.588v-16.217c0-8.61 6.98-15.589 15.589-15.589h465.821c8.61 0 15.589 6.98 15.589 15.589v16.217c.001 5.848-4.739 10.588-10.586 10.588z" fill="#c8d2dc"/></g><g><path d="m210.483 448.166v-202.798h-15v202.797c0 .625.067 1.231.185 1.817h14.63c.118-.585.185-1.191.185-1.816z" fill="#738c96"/></g></g></svg>